<?xml version="1.0" standalone="no"?>
<!DOCTYPE svg PUBLIC "-//W3C//DTD SVG 20010904//EN" "http://www.w3.org/TR/2001/REC-SVG-20010904/DTD/svg10.dtd">
<!-- Created using Krita: https://krita.org -->
<svg xmlns="http://www.w3.org/2000/svg" 
    xmlns:xlink="http://www.w3.org/1999/xlink"
    xmlns:krita="http://krita.org/namespaces/svg/krita"
    xmlns:sodipodi="http://sodipodi.sourceforge.net/DTD/sodipodi-0.dtd"
    width="72pt"
    height="72pt"
    viewBox="0 0 72 72">
<defs/>
<path id="shape0" transform="translate(15.747780041047, 14.6249044865169)" sodipodi:type="arc" sodipodi:rx="21.375" sodipodi:ry="21.375" sodipodi:cx="21.3772199589531" sodipodi:cy="21.375095513483" sodipodi:start="0.715512168754229" sodipodi:end="4.74157786633515" sodipodi:open="true" d="M22.001 0.00920052C12.0677 -0.280826 3.24469 6.31329 0.709485 15.9221C-1.82572 25.5309 2.59568 35.6194 11.3792 40.2677C20.1627 44.9159 30.991 42.8977 37.5102 35.3972" fill="none" stroke="#2d2d2d" stroke-width="2.25" stroke-linecap="square" stroke-linejoin="bevel"/><path id="shape1" transform="translate(30.2316277527004, 15.7309975298805)" sodipodi:type="arc" sodipodi:rx="16.875" sodipodi:ry="18" sodipodi:cx="16.8777468507135" sodipodi:cy="15.6283774075006" sodipodi:start="1.18734609574418" sodipodi:end="4.19324296123479" sodipodi:open="true" d="M8.5054 0C0.799087 4.69718 -2.17878 14.9592 1.69224 23.4788C5.56326 31.9984 14.9599 35.8632 23.1911 32.3212" fill="none" stroke="#2d2d2d" stroke-width="2.25" stroke-linecap="square" stroke-linejoin="bevel"/><path id="shape2" transform="translate(13.4999918130618, 13.2187419329059)" sodipodi:type="arc" sodipodi:rx="23.2734386514911" sodipodi:ry="22.921876134097" sodipodi:cx="23.2734475063638" sodipodi:cy="22.9218848552102" sodipodi:start="6.28318530717959" sodipodi:end="6.27723024394684" sodipodi:open="true" d="M46.5465 22.7854C46.4699 10.1262 35.9882 -0.0749719 23.1349 0.000415157C10.2815 0.0758023 -0.0761218 10.3992 0.000421524 23.0584C0.0769649 35.7176 10.5587 45.9187 23.412 45.8434C36.2654 45.768 46.623 35.4446 46.5465 22.7854Z" fill="none" stroke="#b4b4b4" stroke-width="2.25" stroke-linecap="square" stroke-linejoin="bevel"/><path id="shape3" transform="translate(8.85937548882321, 15.4687508535009)" fill="none" stroke="#b4b4b4" stroke-width="3.375" stroke-linecap="square" stroke-linejoin="miter" stroke-miterlimit="2" d="M5.34375 4.07813L0 0" sodipodi:nodetypes="cc"/><path id="shape4" transform="translate(57.3750028387213, 14.7656258147054)" fill="none" stroke="#b4b4b4" stroke-width="3.375" stroke-linecap="square" stroke-linejoin="miter" stroke-miterlimit="2" d="M0 4.5L6.32813 0" sodipodi:nodetypes="cc"/><path id="shape5" transform="translate(63.8437531539645, 36)" fill="none" stroke="#b4b4b4" stroke-width="3.375" stroke-linecap="square" stroke-linejoin="miter" stroke-miterlimit="2" d="M0 0L6.32813 0" sodipodi:nodetypes="cc"/><path id="shape6" transform="translate(56.2500027830601, 54.4218776926107)" fill="none" stroke="#b4b4b4" stroke-width="3.375" stroke-linecap="square" stroke-linejoin="miter" stroke-miterlimit="2" d="M0 0L4.78125 4.78125" sodipodi:nodetypes="cc"/><path id="shape7" transform="translate(36, 63.0000031210346)" fill="none" stroke="#b4b4b4" stroke-width="3.375" stroke-linecap="square" stroke-linejoin="miter" stroke-miterlimit="2" d="M0 0L0 5.625" sodipodi:nodetypes="cc"/><path id="shape8" transform="translate(11.1093756129688, 54.4218780027712)" fill="none" stroke="#b4b4b4" stroke-width="3.375" stroke-linecap="square" stroke-linejoin="miter" stroke-miterlimit="2" d="M5.625 0L0 5.76563" sodipodi:nodetypes="cc"/><path id="shape9" transform="translate(1.82812509766249, 36)" fill="none" stroke="#b4b4b4" stroke-width="3.375" stroke-linecap="square" stroke-linejoin="miter" stroke-miterlimit="2" d="M7.45313 0L0 0" sodipodi:nodetypes="cc"/><path id="shape0" transform="matrix(0.999999959871694 0 0 0.999999959871694 36 3.92250044871566)" fill="none" stroke="#b4b4b4" stroke-width="3.375" stroke-linecap="square" stroke-linejoin="miter" stroke-miterlimit="2" d="M0 0L0 5.625" sodipodi:nodetypes="cc"/>
</svg>
